<?xml version="1.0" encoding="utf-8"?>
<!-- Svg Vector Icons : http://www.onlinewebfonts.com/icon -->
<!DOCTYPE svg PUBLIC "-//W3C//DTD SVG 1.1//EN" "http://www.w3.org/Graphics/SVG/1.1/DTD/svg11.dtd">
<svg version="1.1" xmlns="http://www.w3.org/2000/svg" xmlns:xlink="http://www.w3.org/1999/xlink" x="0px" y="0px" viewBox="0 0 1000 1000" enable-background="new 0 0 1000 1000" xml:space="preserve">
<metadata> Svg Vector Icons : http://www.onlinewebfonts.com/icon </metadata>
<g><g transform="translate(0.000000,512.000000) scale(0.100000,-0.100000)"><path d="M1962.5,4988.1c-78.5-49.8-111.1-153.2-74.7-239.4c15.3-32.6,168.5-256.6,340.9-499.9l314.1-440.5l-270.1-9.6c-214.5-7.7-281.5-17.2-321.8-44c-59.4-38.3-90-134.1-69-210.7c7.7-28.7,181.9-279.6,386.9-555.4c204.9-275.8,846.6-1143.4,1428.8-1924.8L4753-361.2l-3.8-2003.3l-5.7-2005.3l-656.9-9.6l-658.9-9.6l-57.5-65.1c-49.8-55.5-57.5-74.7-47.9-141.7c5.7-47.9,30.6-95.8,59.4-126.4l49.8-49.8l1493.9-5.7c1647.1-5.7,1574.4-9.6,1639.5,113c42.1,82.4,21.1,174.3-51.7,235.6l-59.4,49.8h-649.3h-649.3v2011v2011l1453.7,1894.2c800.6,1041.9,1469,1917.2,1486.2,1944c38.3,55.5,42.1,160.9,11.5,220.2c-55.5,101.5,67,97.7-2595.2,97.7H3050.4l-388.8,549.7c-214.5,300.7-409.9,572.7-436.7,603.3C2161.7,5026.4,2048.7,5041.8,1962.5,4988.1z M3720.7,2151.6c482.6-679.9,905.9-1260.2,938.5-1290.9c51.7-46,72.8-51.7,136-44.1c42.1,5.8,97.7,28.7,122.6,53.6c47.9,46,76.6,143.6,57.5,203c-5.8,19.2-373.5,543.9-815.9,1164.5c-442.4,622.5-804.4,1135.7-804.4,1145.3c0,7.7,936.6,13.4,2080,13.4c1656.7,0,2076.1-5.7,2064.7-23c-28.7-46-2482.2-3242.5-2516.7-3277c-32.6-34.5-69,11.5-990.2,1254.5C2504.5,3356.3,2493,3371.7,2493,3385.1c0,7.7,78.5,9.6,174.3,7.7l174.3-5.7L3720.7,2151.6z"/></g></g>
</svg>